<svg xmlns="http://www.w3.org/2000/svg" width="32px" height="32px"  viewBox="0 0 24 24"><g>
                <path d="M3.548,20.922c4.927,0,9.853,0,14.78,0c0.708,0,1.416,0,2.124,0c0.643,0,0.645-1,0-1
                    c-4.927,0-9.853,0-14.78,0c-0.708,0-1.416,0-2.124,0C2.905,19.922,2.904,20.922,3.548,20.922L3.548,20.922z"/>
                <path d="M9,18.919H6.565c-1.379,0-2.5-1.121-2.5-2.5V5.578c0-1.379,1.121-2.5,2.5-2.5H9
                    c1.379,0,2.5,1.121,2.5,2.5v10.841C11.5,17.798,10.379,18.919,9,18.919z M6.565,4.078c-0.827,0-1.5,0.673-1.5,1.5v10.841
                    c0,0.827,0.673,1.5,1.5,1.5H9c0.827,0,1.5-0.673,1.5-1.5V5.578c0-0.827-0.673-1.5-1.5-1.5H6.565z"/>
                <path d="M17.437,18.919h-2.435c-1.379,0-2.5-1.121-2.5-2.5V10.55c0-1.379,1.121-2.5,2.5-2.5h2.435
                    c1.379,0,2.5,1.121,2.5,2.5v5.869C19.937,17.798,18.816,18.919,17.437,18.919z M15.003,9.05c-0.827,0-1.5,0.673-1.5,1.5v5.869
                    c0,0.827,0.673,1.5,1.5,1.5h2.435c0.827,0,1.5-0.673,1.5-1.5V10.55c0-0.827-0.673-1.5-1.5-1.5H15.003z"/>
            </g></svg>